<mxfile host="Electron" modified="2023-05-11T10:24:20.651Z" agent="Mozilla/5.0 (Macintosh; Intel Mac OS X 10_15_7) AppleWebKit/537.36 (KHTML, like Gecko) draw.io/21.2.8 Chrome/112.0.5615.165 Electron/24.2.0 Safari/537.36" etag="edAgQUlQ0HGoSmmFI8oh" version="21.2.8" type="device">
  <diagram name="Page-1" id="-ehbrMDcGk8Br0xbLhQl">
    <mxGraphModel dx="1239" dy="2267" grid="1" gridSize="10" guides="1" tooltips="1" connect="1" arrows="1" fold="1" page="1" pageScale="1" pageWidth="827" pageHeight="1169" math="0" shadow="0">
      <root>
        <mxCell id="0" />
        <mxCell id="1" parent="0" />
        <mxCell id="TYAT_m3Qwc5HiXnAlvp4-63" value="&lt;font style=&quot;font-size: 16px;&quot;&gt;Decoder&lt;br style=&quot;font-size: 16px;&quot;&gt;&lt;br style=&quot;font-size: 16px;&quot;&gt;&lt;i style=&quot;font-size: 16px;&quot;&gt;N&lt;/i&gt;&lt;sub style=&quot;font-size: 16px;&quot;&gt;up&lt;/sub&gt;&lt;br style=&quot;font-size: 16px;&quot;&gt;&lt;i style=&quot;font-size: 16px;&quot;&gt;N&lt;/i&gt;&lt;sub style=&quot;font-size: 16px;&quot;&gt;dn&lt;/sub&gt;&lt;br style=&quot;font-size: 16px;&quot;&gt;&lt;i style=&quot;font-size: 16px;&quot;&gt;N&lt;/i&gt;&lt;sub style=&quot;font-size: 16px;&quot;&gt;ref&lt;/sub&gt;&lt;br style=&quot;font-size: 16px;&quot;&gt;&lt;/font&gt;" style="rounded=0;whiteSpace=wrap;html=1;fillColor=default;strokeWidth=2;fontSize=16;" parent="1" vertex="1">
          <mxGeometry x="460" y="-960" width="70" height="600" as="geometry" />
        </mxCell>
        <mxCell id="TYAT_m3Qwc5HiXnAlvp4-65" value="" style="shape=flexArrow;endArrow=classic;html=1;rounded=0;entryX=0;entryY=0.5;entryDx=0;entryDy=0;fillColor=default;strokeWidth=2;fontSize=16;" parent="1" target="TYAT_m3Qwc5HiXnAlvp4-63" edge="1">
          <mxGeometry width="50" height="50" relative="1" as="geometry">
            <mxPoint x="400" y="-660" as="sourcePoint" />
            <mxPoint x="179" y="-771" as="targetPoint" />
            <Array as="points" />
          </mxGeometry>
        </mxCell>
        <mxCell id="TYAT_m3Qwc5HiXnAlvp4-82" value="&lt;font style=&quot;font-size: 16px;&quot;&gt;&lt;i style=&quot;font-size: 16px;&quot;&gt;V&lt;/i&gt;&lt;sub style=&quot;font-size: 16px;&quot;&gt;out&lt;/sub&gt;&lt;/font&gt;" style="text;html=1;strokeColor=none;fillColor=none;align=center;verticalAlign=middle;whiteSpace=wrap;rounded=0;fontSize=16;strokeWidth=2;fontColor=#0000FF;" parent="1" vertex="1">
          <mxGeometry x="1211" y="-625" width="60" height="30" as="geometry" />
        </mxCell>
        <mxCell id="SqGnxgyGbh73jKpLDU17-125" value="" style="endArrow=none;html=1;rounded=0;strokeWidth=2;strokeColor=#0000FF;" parent="1" source="SqGnxgyGbh73jKpLDU17-130" edge="1">
          <mxGeometry width="50" height="50" relative="1" as="geometry">
            <mxPoint x="820" y="-610" as="sourcePoint" />
            <mxPoint x="1220" y="-610" as="targetPoint" />
          </mxGeometry>
        </mxCell>
        <mxCell id="SqGnxgyGbh73jKpLDU17-126" value="" style="endArrow=none;html=1;rounded=0;strokeColor=#0000FF;strokeWidth=2;" parent="1" edge="1">
          <mxGeometry width="50" height="50" relative="1" as="geometry">
            <mxPoint x="1130" y="-820" as="sourcePoint" />
            <mxPoint x="1160" y="-820" as="targetPoint" />
          </mxGeometry>
        </mxCell>
        <mxCell id="SqGnxgyGbh73jKpLDU17-127" value="" style="endArrow=none;html=1;rounded=0;strokeColor=#0000FF;strokeWidth=2;" parent="1" source="SqGnxgyGbh73jKpLDU17-150" edge="1">
          <mxGeometry width="50" height="50" relative="1" as="geometry">
            <mxPoint x="1160" y="-620" as="sourcePoint" />
            <mxPoint x="1160" y="-820" as="targetPoint" />
          </mxGeometry>
        </mxCell>
        <mxCell id="SqGnxgyGbh73jKpLDU17-129" value="" style="endArrow=none;html=1;rounded=0;strokeWidth=2;strokeColor=#0000FF;" parent="1" source="SqGnxgyGbh73jKpLDU17-159" edge="1">
          <mxGeometry width="50" height="50" relative="1" as="geometry">
            <mxPoint x="1160" y="-300" as="sourcePoint" />
            <mxPoint x="1160" y="-610" as="targetPoint" />
          </mxGeometry>
        </mxCell>
        <mxCell id="SqGnxgyGbh73jKpLDU17-131" value="" style="endArrow=none;html=1;rounded=0;strokeWidth=2;strokeColor=#0000FF;" parent="1" target="SqGnxgyGbh73jKpLDU17-130" edge="1">
          <mxGeometry width="50" height="50" relative="1" as="geometry">
            <mxPoint x="820" y="-610" as="sourcePoint" />
            <mxPoint x="1220" y="-610" as="targetPoint" />
          </mxGeometry>
        </mxCell>
        <mxCell id="SqGnxgyGbh73jKpLDU17-130" value="" style="shape=waypoint;sketch=0;fillStyle=solid;size=6;pointerEvents=1;points=[];fillColor=none;resizable=0;rotatable=0;perimeter=centerPerimeter;snapToPoint=1;strokeWidth=2;fontSize=16;strokeColor=#0000FF;" parent="1" vertex="1">
          <mxGeometry x="1150" y="-620" width="20" height="20" as="geometry" />
        </mxCell>
        <mxCell id="SqGnxgyGbh73jKpLDU17-51" value="" style="rounded=0;whiteSpace=wrap;html=1;fillColor=default;strokeColor=#999999;strokeWidth=2;" parent="1" vertex="1">
          <mxGeometry x="600" y="-861" width="220" height="420" as="geometry" />
        </mxCell>
        <mxCell id="SqGnxgyGbh73jKpLDU17-50" value="" style="rounded=0;whiteSpace=wrap;html=1;fillColor=default;strokeWidth=2;strokeColor=#999999;" parent="1" vertex="1">
          <mxGeometry x="590" y="-851" width="220" height="422" as="geometry" />
        </mxCell>
        <mxCell id="SqGnxgyGbh73jKpLDU17-48" value="" style="rounded=0;whiteSpace=wrap;html=1;fillColor=default;strokeWidth=2;strokeColor=#000000;" parent="1" vertex="1">
          <mxGeometry x="580" y="-841" width="220" height="420" as="geometry" />
        </mxCell>
        <mxCell id="SqGnxgyGbh73jKpLDU17-24" value="" style="verticalLabelPosition=bottom;shadow=0;dashed=0;align=center;html=1;verticalAlign=top;shape=mxgraph.electrical.transistors.pmos;pointerEvents=1;strokeWidth=2;fontSize=16;strokeColor=#0000FF;" parent="1" vertex="1">
          <mxGeometry x="695" y="-701" width="60" height="100" as="geometry" />
        </mxCell>
        <mxCell id="SqGnxgyGbh73jKpLDU17-25" value="" style="verticalLabelPosition=bottom;shadow=0;dashed=0;align=center;html=1;verticalAlign=top;shape=mxgraph.electrical.transistors.nmos;pointerEvents=1;strokeWidth=2;fontSize=16;strokeColor=#0000FF;" parent="1" vertex="1">
          <mxGeometry x="695" y="-622" width="60" height="100" as="geometry" />
        </mxCell>
        <mxCell id="SqGnxgyGbh73jKpLDU17-23" style="edgeStyle=orthogonalEdgeStyle;rounded=0;orthogonalLoop=1;jettySize=auto;html=1;exitX=0;exitY=0.5;exitDx=0;exitDy=0;exitPerimeter=0;entryX=0;entryY=0.5;entryDx=0;entryDy=0;entryPerimeter=0;endArrow=none;endFill=0;strokeWidth=2;fontSize=16;strokeColor=#0000FF;" parent="1" source="SqGnxgyGbh73jKpLDU17-24" target="SqGnxgyGbh73jKpLDU17-25" edge="1">
          <mxGeometry relative="1" as="geometry">
            <Array as="points">
              <mxPoint x="695" y="-621" />
              <mxPoint x="695" y="-621" />
            </Array>
          </mxGeometry>
        </mxCell>
        <mxCell id="SqGnxgyGbh73jKpLDU17-27" value="" style="verticalLabelPosition=bottom;shadow=0;dashed=0;align=center;html=1;verticalAlign=top;shape=mxgraph.electrical.transistors.nmos;pointerEvents=1;strokeWidth=2;fontSize=16;" parent="1" vertex="1">
          <mxGeometry x="695" y="-541" width="60" height="100" as="geometry" />
        </mxCell>
        <mxCell id="SqGnxgyGbh73jKpLDU17-28" value="" style="verticalLabelPosition=bottom;shadow=0;dashed=0;align=center;html=1;verticalAlign=top;shape=mxgraph.electrical.transistors.pmos;pointerEvents=1;strokeWidth=2;fontSize=16;" parent="1" vertex="1">
          <mxGeometry x="695" y="-781" width="60" height="100" as="geometry" />
        </mxCell>
        <mxCell id="SqGnxgyGbh73jKpLDU17-29" value="" style="verticalLabelPosition=bottom;shadow=0;dashed=0;align=center;html=1;verticalAlign=top;shape=mxgraph.electrical.transistors.pmos;pointerEvents=1;strokeWidth=2;fontSize=16;" parent="1" vertex="1">
          <mxGeometry x="600" y="-821" width="60" height="100" as="geometry" />
        </mxCell>
        <mxCell id="SqGnxgyGbh73jKpLDU17-30" value="" style="pointerEvents=1;verticalLabelPosition=bottom;shadow=0;dashed=0;align=center;html=1;verticalAlign=top;shape=mxgraph.electrical.signal_sources.protective_earth;strokeWidth=2;fontSize=16;" parent="1" vertex="1">
          <mxGeometry x="649" y="-648" width="22" height="20" as="geometry" />
        </mxCell>
        <mxCell id="SqGnxgyGbh73jKpLDU17-31" value="" style="endArrow=none;html=1;rounded=0;entryX=0;entryY=0.5;entryDx=0;entryDy=0;entryPerimeter=0;exitDx=0;exitDy=0;exitPerimeter=0;strokeWidth=2;fontSize=16;" parent="1" target="SqGnxgyGbh73jKpLDU17-29" edge="1">
          <mxGeometry width="50" height="50" relative="1" as="geometry">
            <mxPoint x="600" y="-771" as="sourcePoint" />
            <mxPoint x="540" y="-751" as="targetPoint" />
          </mxGeometry>
        </mxCell>
        <mxCell id="SqGnxgyGbh73jKpLDU17-32" value="" style="endArrow=none;html=1;rounded=0;entryDx=0;entryDy=0;entryPerimeter=0;exitX=0;exitY=0.5;exitDx=0;exitDy=0;exitPerimeter=0;strokeWidth=2;fontSize=16;" parent="1" target="SqGnxgyGbh73jKpLDU17-33" edge="1">
          <mxGeometry width="50" height="50" relative="1" as="geometry">
            <mxPoint x="600" y="-691" as="sourcePoint" />
            <mxPoint x="600" y="-771" as="targetPoint" />
          </mxGeometry>
        </mxCell>
        <mxCell id="SqGnxgyGbh73jKpLDU17-33" value="" style="shape=waypoint;sketch=0;fillStyle=solid;size=6;pointerEvents=1;points=[];fillColor=none;resizable=0;rotatable=0;perimeter=centerPerimeter;snapToPoint=1;strokeWidth=2;fontSize=16;" parent="1" vertex="1">
          <mxGeometry x="590" y="-701" width="20" height="20" as="geometry" />
        </mxCell>
        <mxCell id="SqGnxgyGbh73jKpLDU17-26" style="edgeStyle=orthogonalEdgeStyle;rounded=0;orthogonalLoop=1;jettySize=auto;html=1;exitX=0;exitY=0.5;exitDx=0;exitDy=0;exitPerimeter=0;entryX=0.514;entryY=0.664;entryDx=0;entryDy=0;entryPerimeter=0;endArrow=none;endFill=0;strokeWidth=2;fontSize=16;" parent="1" source="SqGnxgyGbh73jKpLDU17-27" target="SqGnxgyGbh73jKpLDU17-33" edge="1">
          <mxGeometry relative="1" as="geometry">
            <Array as="points">
              <mxPoint x="600" y="-491" />
            </Array>
          </mxGeometry>
        </mxCell>
        <mxCell id="SqGnxgyGbh73jKpLDU17-34" value="" style="verticalLabelPosition=bottom;shadow=0;dashed=0;align=center;html=1;verticalAlign=top;shape=mxgraph.electrical.transistors.nmos;pointerEvents=1;strokeWidth=2;fontSize=16;" parent="1" vertex="1">
          <mxGeometry x="600" y="-741" width="60" height="100" as="geometry" />
        </mxCell>
        <mxCell id="SqGnxgyGbh73jKpLDU17-35" value="" style="endArrow=none;html=1;rounded=0;strokeWidth=3;fontSize=16;" parent="1" edge="1">
          <mxGeometry width="50" height="50" relative="1" as="geometry">
            <mxPoint x="640" y="-821" as="sourcePoint" />
            <mxPoint x="780" y="-821" as="targetPoint" />
          </mxGeometry>
        </mxCell>
        <mxCell id="SqGnxgyGbh73jKpLDU17-36" value="" style="endArrow=none;html=1;rounded=0;exitX=1;exitY=0;exitDx=0;exitDy=0;exitPerimeter=0;strokeWidth=2;fontSize=16;" parent="1" source="SqGnxgyGbh73jKpLDU17-29" edge="1">
          <mxGeometry width="50" height="50" relative="1" as="geometry">
            <mxPoint x="710" y="-681" as="sourcePoint" />
            <mxPoint x="660" y="-821" as="targetPoint" />
          </mxGeometry>
        </mxCell>
        <mxCell id="SqGnxgyGbh73jKpLDU17-37" value="" style="endArrow=none;html=1;rounded=0;exitX=1;exitY=0;exitDx=0;exitDy=0;exitPerimeter=0;strokeWidth=2;fontSize=16;" parent="1" source="SqGnxgyGbh73jKpLDU17-28" edge="1">
          <mxGeometry width="50" height="50" relative="1" as="geometry">
            <mxPoint x="655" y="-731" as="sourcePoint" />
            <mxPoint x="755" y="-821" as="targetPoint" />
          </mxGeometry>
        </mxCell>
        <mxCell id="SqGnxgyGbh73jKpLDU17-38" value="" style="shape=waypoint;sketch=0;fillStyle=solid;size=6;pointerEvents=1;points=[];fillColor=none;resizable=0;rotatable=0;perimeter=centerPerimeter;snapToPoint=1;strokeWidth=2;fontSize=16;" parent="1" vertex="1">
          <mxGeometry x="650" y="-741" width="20" height="20" as="geometry" />
        </mxCell>
        <mxCell id="SqGnxgyGbh73jKpLDU17-39" value="" style="endArrow=none;html=1;rounded=0;entryX=0;entryY=0.5;entryDx=0;entryDy=0;entryPerimeter=0;exitX=0.608;exitY=0.508;exitDx=0;exitDy=0;exitPerimeter=0;strokeWidth=2;fontSize=16;" parent="1" source="SqGnxgyGbh73jKpLDU17-38" target="SqGnxgyGbh73jKpLDU17-28" edge="1">
          <mxGeometry width="50" height="50" relative="1" as="geometry">
            <mxPoint x="700" y="-671" as="sourcePoint" />
            <mxPoint x="750" y="-721" as="targetPoint" />
          </mxGeometry>
        </mxCell>
        <mxCell id="SqGnxgyGbh73jKpLDU17-40" value="" style="pointerEvents=1;verticalLabelPosition=bottom;shadow=0;dashed=0;align=center;html=1;verticalAlign=top;shape=mxgraph.electrical.signal_sources.protective_earth;strokeWidth=2;fontSize=16;" parent="1" vertex="1">
          <mxGeometry x="744" y="-449" width="22" height="20" as="geometry" />
        </mxCell>
        <mxCell id="SqGnxgyGbh73jKpLDU17-41" value="" style="shape=waypoint;sketch=0;fillStyle=solid;size=6;pointerEvents=1;points=[];fillColor=none;resizable=0;rotatable=0;perimeter=centerPerimeter;snapToPoint=1;strokeWidth=2;fontSize=16;strokeColor=#0000FF;" parent="1" vertex="1">
          <mxGeometry x="745" y="-620" width="20" height="20" as="geometry" />
        </mxCell>
        <mxCell id="SqGnxgyGbh73jKpLDU17-42" value="" style="endArrow=none;html=1;rounded=0;strokeWidth=2;fontSize=16;strokeColor=#0000FF;" parent="1" source="SqGnxgyGbh73jKpLDU17-45" edge="1">
          <mxGeometry width="50" height="50" relative="1" as="geometry">
            <mxPoint x="765" y="-500" as="sourcePoint" />
            <mxPoint x="820" y="-610" as="targetPoint" />
          </mxGeometry>
        </mxCell>
        <mxCell id="SqGnxgyGbh73jKpLDU17-43" value="" style="endArrow=none;html=1;rounded=0;entryDx=0;entryDy=0;entryPerimeter=0;exitDx=0;exitDy=0;exitPerimeter=0;strokeWidth=2;fontSize=16;" parent="1" source="SqGnxgyGbh73jKpLDU17-33" edge="1">
          <mxGeometry width="50" height="50" relative="1" as="geometry">
            <mxPoint x="600" y="-691" as="sourcePoint" />
            <mxPoint x="600" y="-771" as="targetPoint" />
          </mxGeometry>
        </mxCell>
        <mxCell id="SqGnxgyGbh73jKpLDU17-45" value="" style="shape=waypoint;sketch=0;fillStyle=solid;size=6;pointerEvents=1;points=[];fillColor=none;resizable=0;rotatable=0;perimeter=centerPerimeter;snapToPoint=1;strokeWidth=2;fontSize=16;strokeColor=#0000FF;" parent="1" vertex="1">
          <mxGeometry x="685" y="-620" width="20" height="20" as="geometry" />
        </mxCell>
        <mxCell id="SqGnxgyGbh73jKpLDU17-46" value="" style="endArrow=none;html=1;rounded=0;strokeWidth=2;" parent="1" target="SqGnxgyGbh73jKpLDU17-33" edge="1">
          <mxGeometry width="50" height="50" relative="1" as="geometry">
            <mxPoint x="560" y="-691" as="sourcePoint" />
            <mxPoint x="520" y="-691" as="targetPoint" />
          </mxGeometry>
        </mxCell>
        <mxCell id="SqGnxgyGbh73jKpLDU17-53" value="&lt;font style=&quot;font-size: 16px;&quot;&gt;&lt;span style=&quot;font-style: italic; font-size: 16px;&quot;&gt;N&lt;/span&gt;&lt;span style=&quot;font-size: 16px;&quot;&gt;&lt;sub style=&quot;font-size: 16px;&quot;&gt;ref&lt;/sub&gt;&lt;/span&gt;&lt;/font&gt;" style="text;html=1;strokeColor=none;fillColor=none;align=center;verticalAlign=middle;whiteSpace=wrap;rounded=0;fontSize=16;strokeWidth=2;" parent="1" vertex="1">
          <mxGeometry x="600" y="-459" width="60" height="30" as="geometry" />
        </mxCell>
        <mxCell id="SqGnxgyGbh73jKpLDU17-85" value="" style="rounded=0;whiteSpace=wrap;html=1;fillColor=default;strokeWidth=2;strokeColor=#999999;" parent="1" vertex="1">
          <mxGeometry x="910" y="-1070" width="220" height="420" as="geometry" />
        </mxCell>
        <mxCell id="SqGnxgyGbh73jKpLDU17-86" value="" style="rounded=0;whiteSpace=wrap;html=1;fillColor=default;strokeWidth=2;strokeColor=#999999;" parent="1" vertex="1">
          <mxGeometry x="900" y="-1060" width="220" height="422" as="geometry" />
        </mxCell>
        <mxCell id="SqGnxgyGbh73jKpLDU17-87" value="" style="rounded=0;whiteSpace=wrap;html=1;fillColor=default;strokeWidth=2;" parent="1" vertex="1">
          <mxGeometry x="890" y="-1050" width="220" height="420" as="geometry" />
        </mxCell>
        <mxCell id="SqGnxgyGbh73jKpLDU17-92" value="" style="verticalLabelPosition=bottom;shadow=0;dashed=0;align=center;html=1;verticalAlign=top;shape=mxgraph.electrical.transistors.nmos;pointerEvents=1;strokeWidth=2;fontSize=16;strokeColor=#CCCCCC;" parent="1" vertex="1">
          <mxGeometry x="1005" y="-750" width="60" height="100" as="geometry" />
        </mxCell>
        <mxCell id="SqGnxgyGbh73jKpLDU17-93" value="" style="verticalLabelPosition=bottom;shadow=0;dashed=0;align=center;html=1;verticalAlign=top;shape=mxgraph.electrical.transistors.pmos;pointerEvents=1;strokeWidth=2;fontSize=16;" parent="1" vertex="1">
          <mxGeometry x="1005" y="-990" width="60" height="100" as="geometry" />
        </mxCell>
        <mxCell id="SqGnxgyGbh73jKpLDU17-94" value="" style="verticalLabelPosition=bottom;shadow=0;dashed=0;align=center;html=1;verticalAlign=top;shape=mxgraph.electrical.transistors.pmos;pointerEvents=1;strokeWidth=2;fontSize=16;" parent="1" vertex="1">
          <mxGeometry x="910" y="-1030" width="60" height="100" as="geometry" />
        </mxCell>
        <mxCell id="SqGnxgyGbh73jKpLDU17-95" value="" style="pointerEvents=1;verticalLabelPosition=bottom;shadow=0;dashed=0;align=center;html=1;verticalAlign=top;shape=mxgraph.electrical.signal_sources.protective_earth;strokeWidth=2;fontSize=16;" parent="1" vertex="1">
          <mxGeometry x="959" y="-857" width="22" height="20" as="geometry" />
        </mxCell>
        <mxCell id="SqGnxgyGbh73jKpLDU17-96" value="" style="endArrow=none;html=1;rounded=0;entryX=0;entryY=0.5;entryDx=0;entryDy=0;entryPerimeter=0;exitDx=0;exitDy=0;exitPerimeter=0;strokeWidth=2;fontSize=16;" parent="1" target="SqGnxgyGbh73jKpLDU17-94" edge="1">
          <mxGeometry width="50" height="50" relative="1" as="geometry">
            <mxPoint x="910" y="-980" as="sourcePoint" />
            <mxPoint x="850" y="-960" as="targetPoint" />
          </mxGeometry>
        </mxCell>
        <mxCell id="SqGnxgyGbh73jKpLDU17-97" value="" style="endArrow=none;html=1;rounded=0;entryDx=0;entryDy=0;entryPerimeter=0;exitX=0;exitY=0.5;exitDx=0;exitDy=0;exitPerimeter=0;strokeWidth=2;fontSize=16;" parent="1" target="SqGnxgyGbh73jKpLDU17-98" edge="1">
          <mxGeometry width="50" height="50" relative="1" as="geometry">
            <mxPoint x="910" y="-900" as="sourcePoint" />
            <mxPoint x="910" y="-980" as="targetPoint" />
          </mxGeometry>
        </mxCell>
        <mxCell id="SqGnxgyGbh73jKpLDU17-91" style="edgeStyle=orthogonalEdgeStyle;rounded=0;orthogonalLoop=1;jettySize=auto;html=1;exitX=0;exitY=0.5;exitDx=0;exitDy=0;exitPerimeter=0;entryX=0.514;entryY=0.664;entryDx=0;entryDy=0;entryPerimeter=0;endArrow=none;endFill=0;strokeWidth=2;fontSize=16;strokeColor=#CCCCCC;" parent="1" source="SqGnxgyGbh73jKpLDU17-92" target="SqGnxgyGbh73jKpLDU17-98" edge="1">
          <mxGeometry relative="1" as="geometry">
            <Array as="points">
              <mxPoint x="910" y="-700" />
            </Array>
          </mxGeometry>
        </mxCell>
        <mxCell id="SqGnxgyGbh73jKpLDU17-98" value="" style="shape=waypoint;sketch=0;fillStyle=solid;size=6;pointerEvents=1;points=[];fillColor=none;resizable=0;rotatable=0;perimeter=centerPerimeter;snapToPoint=1;strokeWidth=2;fontSize=16;" parent="1" vertex="1">
          <mxGeometry x="900" y="-910" width="20" height="20" as="geometry" />
        </mxCell>
        <mxCell id="SqGnxgyGbh73jKpLDU17-100" value="" style="endArrow=none;html=1;rounded=0;strokeWidth=3;fontSize=16;" parent="1" edge="1">
          <mxGeometry width="50" height="50" relative="1" as="geometry">
            <mxPoint x="950" y="-1030" as="sourcePoint" />
            <mxPoint x="1090" y="-1030" as="targetPoint" />
          </mxGeometry>
        </mxCell>
        <mxCell id="SqGnxgyGbh73jKpLDU17-101" value="" style="endArrow=none;html=1;rounded=0;exitX=1;exitY=0;exitDx=0;exitDy=0;exitPerimeter=0;strokeWidth=2;fontSize=16;" parent="1" source="SqGnxgyGbh73jKpLDU17-94" edge="1">
          <mxGeometry width="50" height="50" relative="1" as="geometry">
            <mxPoint x="1020" y="-890" as="sourcePoint" />
            <mxPoint x="970" y="-1030" as="targetPoint" />
          </mxGeometry>
        </mxCell>
        <mxCell id="SqGnxgyGbh73jKpLDU17-102" value="" style="endArrow=none;html=1;rounded=0;exitX=1;exitY=0;exitDx=0;exitDy=0;exitPerimeter=0;strokeWidth=2;fontSize=16;" parent="1" source="SqGnxgyGbh73jKpLDU17-93" edge="1">
          <mxGeometry width="50" height="50" relative="1" as="geometry">
            <mxPoint x="965" y="-940" as="sourcePoint" />
            <mxPoint x="1065" y="-1030" as="targetPoint" />
          </mxGeometry>
        </mxCell>
        <mxCell id="SqGnxgyGbh73jKpLDU17-103" value="" style="shape=waypoint;sketch=0;fillStyle=solid;size=6;pointerEvents=1;points=[];fillColor=none;resizable=0;rotatable=0;perimeter=centerPerimeter;snapToPoint=1;strokeWidth=2;fontSize=16;" parent="1" vertex="1">
          <mxGeometry x="960" y="-950" width="20" height="20" as="geometry" />
        </mxCell>
        <mxCell id="SqGnxgyGbh73jKpLDU17-104" value="" style="endArrow=none;html=1;rounded=0;entryX=0;entryY=0.5;entryDx=0;entryDy=0;entryPerimeter=0;exitX=0.608;exitY=0.508;exitDx=0;exitDy=0;exitPerimeter=0;strokeWidth=2;fontSize=16;" parent="1" source="SqGnxgyGbh73jKpLDU17-103" target="SqGnxgyGbh73jKpLDU17-93" edge="1">
          <mxGeometry width="50" height="50" relative="1" as="geometry">
            <mxPoint x="1010" y="-880" as="sourcePoint" />
            <mxPoint x="1060" y="-930" as="targetPoint" />
          </mxGeometry>
        </mxCell>
        <mxCell id="SqGnxgyGbh73jKpLDU17-105" value="" style="pointerEvents=1;verticalLabelPosition=bottom;shadow=0;dashed=0;align=center;html=1;verticalAlign=top;shape=mxgraph.electrical.signal_sources.protective_earth;strokeWidth=2;fontSize=16;strokeColor=#CCCCCC;" parent="1" vertex="1">
          <mxGeometry x="1054" y="-658" width="22" height="20" as="geometry" />
        </mxCell>
        <mxCell id="SqGnxgyGbh73jKpLDU17-106" value="" style="shape=waypoint;sketch=0;fillStyle=solid;size=6;pointerEvents=1;points=[];fillColor=none;resizable=0;rotatable=0;perimeter=centerPerimeter;snapToPoint=1;strokeWidth=2;fontSize=16;strokeColor=#0000FF;" parent="1" vertex="1">
          <mxGeometry x="1055" y="-829" width="20" height="20" as="geometry" />
        </mxCell>
        <mxCell id="SqGnxgyGbh73jKpLDU17-107" value="" style="endArrow=none;html=1;rounded=0;entryDx=0;entryDy=0;entryPerimeter=0;exitDx=0;exitDy=0;exitPerimeter=0;strokeWidth=2;fontSize=16;" parent="1" source="SqGnxgyGbh73jKpLDU17-98" edge="1">
          <mxGeometry width="50" height="50" relative="1" as="geometry">
            <mxPoint x="910" y="-900" as="sourcePoint" />
            <mxPoint x="910" y="-980" as="targetPoint" />
          </mxGeometry>
        </mxCell>
        <mxCell id="SqGnxgyGbh73jKpLDU17-109" value="" style="endArrow=none;html=1;rounded=0;strokeWidth=2;" parent="1" target="SqGnxgyGbh73jKpLDU17-98" edge="1">
          <mxGeometry width="50" height="50" relative="1" as="geometry">
            <mxPoint x="870" y="-900" as="sourcePoint" />
            <mxPoint x="830" y="-900" as="targetPoint" />
          </mxGeometry>
        </mxCell>
        <mxCell id="SqGnxgyGbh73jKpLDU17-110" value="" style="endArrow=none;html=1;rounded=0;strokeWidth=2;fontSize=16;strokeColor=#0000FF;" parent="1" edge="1">
          <mxGeometry width="50" height="50" relative="1" as="geometry">
            <mxPoint x="1065" y="-819.29" as="sourcePoint" />
            <mxPoint x="1132" y="-820" as="targetPoint" />
          </mxGeometry>
        </mxCell>
        <mxCell id="SqGnxgyGbh73jKpLDU17-114" value="" style="pointerEvents=1;verticalLabelPosition=bottom;shadow=0;dashed=0;align=center;html=1;verticalAlign=top;shape=mxgraph.electrical.signal_sources.protective_earth;strokeWidth=2;fontSize=16;strokeColor=#0000FF;" parent="1" vertex="1">
          <mxGeometry x="994" y="-658" width="22" height="20" as="geometry" />
        </mxCell>
        <mxCell id="SqGnxgyGbh73jKpLDU17-90" value="" style="verticalLabelPosition=bottom;shadow=0;dashed=0;align=center;html=1;verticalAlign=top;shape=mxgraph.electrical.transistors.nmos;pointerEvents=1;strokeWidth=2;fontSize=16;strokeColor=#CCCCCC;" parent="1" vertex="1">
          <mxGeometry x="1005" y="-831" width="60" height="100" as="geometry" />
        </mxCell>
        <mxCell id="SqGnxgyGbh73jKpLDU17-115" value="" style="endArrow=none;html=1;rounded=0;exitDx=0;exitDy=0;exitPerimeter=0;entryX=0;entryY=0.5;entryDx=0;entryDy=0;entryPerimeter=0;strokeWidth=2;strokeColor=#0000FF;" parent="1" source="SqGnxgyGbh73jKpLDU17-119" target="SqGnxgyGbh73jKpLDU17-90" edge="1">
          <mxGeometry width="50" height="50" relative="1" as="geometry">
            <mxPoint x="1170" y="-771" as="sourcePoint" />
            <mxPoint x="1220" y="-821" as="targetPoint" />
          </mxGeometry>
        </mxCell>
        <mxCell id="SqGnxgyGbh73jKpLDU17-89" value="" style="verticalLabelPosition=bottom;shadow=0;dashed=0;align=center;html=1;verticalAlign=top;shape=mxgraph.electrical.transistors.pmos;pointerEvents=1;strokeWidth=2;fontSize=16;strokeColor=#0000FF;" parent="1" vertex="1">
          <mxGeometry x="1005" y="-910" width="60" height="100" as="geometry" />
        </mxCell>
        <mxCell id="SqGnxgyGbh73jKpLDU17-119" value="" style="shape=waypoint;sketch=0;fillStyle=solid;size=6;pointerEvents=1;points=[];fillColor=none;resizable=0;rotatable=0;perimeter=centerPerimeter;snapToPoint=1;strokeWidth=2;fontSize=16;strokeColor=#CCCCCC;" parent="1" vertex="1">
          <mxGeometry x="995" y="-791" width="20" height="20" as="geometry" />
        </mxCell>
        <mxCell id="SqGnxgyGbh73jKpLDU17-120" value="" style="endArrow=none;html=1;rounded=0;exitX=0.5;exitY=0;exitDx=0;exitDy=0;exitPerimeter=0;entryDx=0;entryDy=0;entryPerimeter=0;strokeWidth=2;strokeColor=#0000FF;" parent="1" source="SqGnxgyGbh73jKpLDU17-114" target="SqGnxgyGbh73jKpLDU17-119" edge="1">
          <mxGeometry width="50" height="50" relative="1" as="geometry">
            <mxPoint x="1005" y="-658" as="sourcePoint" />
            <mxPoint x="1005" y="-781" as="targetPoint" />
          </mxGeometry>
        </mxCell>
        <mxCell id="SqGnxgyGbh73jKpLDU17-121" value="" style="endArrow=none;html=1;rounded=0;" parent="1" target="SqGnxgyGbh73jKpLDU17-87" edge="1">
          <mxGeometry width="50" height="50" relative="1" as="geometry">
            <mxPoint x="890" y="-770" as="sourcePoint" />
            <mxPoint x="940" y="-820" as="targetPoint" />
          </mxGeometry>
        </mxCell>
        <mxCell id="SqGnxgyGbh73jKpLDU17-122" value="" style="endArrow=none;html=1;rounded=0;exitX=-0.018;exitY=-0.008;exitDx=0;exitDy=0;exitPerimeter=0;entryX=0;entryY=0.5;entryDx=0;entryDy=0;entryPerimeter=0;strokeWidth=2;strokeColor=#0000FF;" parent="1" source="SqGnxgyGbh73jKpLDU17-119" target="SqGnxgyGbh73jKpLDU17-89" edge="1">
          <mxGeometry width="50" height="50" relative="1" as="geometry">
            <mxPoint x="890" y="-810" as="sourcePoint" />
            <mxPoint x="940" y="-860" as="targetPoint" />
          </mxGeometry>
        </mxCell>
        <mxCell id="SqGnxgyGbh73jKpLDU17-123" value="&lt;font style=&quot;font-size: 16px;&quot;&gt;&lt;i style=&quot;font-size: 16px;&quot;&gt;N&lt;/i&gt;&lt;sub style=&quot;font-size: 16px;&quot;&gt;up&lt;/sub&gt;&lt;/font&gt;" style="text;html=1;strokeColor=none;fillColor=none;align=center;verticalAlign=middle;whiteSpace=wrap;rounded=0;fontSize=16;strokeWidth=2;" parent="1" vertex="1">
          <mxGeometry x="910" y="-680" width="60" height="30" as="geometry" />
        </mxCell>
        <mxCell id="SqGnxgyGbh73jKpLDU17-54" value="" style="rounded=0;whiteSpace=wrap;html=1;fillColor=default;strokeWidth=2;strokeColor=#999999;" parent="1" vertex="1">
          <mxGeometry x="889.93" y="-550" width="220" height="420" as="geometry" />
        </mxCell>
        <mxCell id="SqGnxgyGbh73jKpLDU17-55" value="" style="rounded=0;whiteSpace=wrap;html=1;fillColor=default;strokeWidth=2;strokeColor=#999999;" parent="1" vertex="1">
          <mxGeometry x="879.93" y="-540" width="220" height="422" as="geometry" />
        </mxCell>
        <mxCell id="SqGnxgyGbh73jKpLDU17-56" value="" style="rounded=0;whiteSpace=wrap;html=1;fillColor=default;strokeWidth=2;" parent="1" vertex="1">
          <mxGeometry x="869.93" y="-530" width="220" height="420" as="geometry" />
        </mxCell>
        <mxCell id="SqGnxgyGbh73jKpLDU17-59" value="" style="verticalLabelPosition=bottom;shadow=0;dashed=0;align=center;html=1;verticalAlign=top;shape=mxgraph.electrical.transistors.nmos;pointerEvents=1;strokeWidth=2;fontSize=16;strokeColor=#0000FF;" parent="1" vertex="1">
          <mxGeometry x="984.93" y="-311" width="60" height="100" as="geometry" />
        </mxCell>
        <mxCell id="SqGnxgyGbh73jKpLDU17-61" value="" style="verticalLabelPosition=bottom;shadow=0;dashed=0;align=center;html=1;verticalAlign=top;shape=mxgraph.electrical.transistors.nmos;pointerEvents=1;strokeWidth=2;fontSize=16;" parent="1" vertex="1">
          <mxGeometry x="984.93" y="-230" width="60" height="100" as="geometry" />
        </mxCell>
        <mxCell id="SqGnxgyGbh73jKpLDU17-62" value="" style="verticalLabelPosition=bottom;shadow=0;dashed=0;align=center;html=1;verticalAlign=top;shape=mxgraph.electrical.transistors.pmos;pointerEvents=1;strokeWidth=2;fontSize=16;strokeColor=#CCCCCC;" parent="1" vertex="1">
          <mxGeometry x="984.93" y="-470" width="60" height="100" as="geometry" />
        </mxCell>
        <mxCell id="SqGnxgyGbh73jKpLDU17-63" value="" style="verticalLabelPosition=bottom;shadow=0;dashed=0;align=center;html=1;verticalAlign=top;shape=mxgraph.electrical.transistors.pmos;pointerEvents=1;strokeWidth=2;fontSize=16;" parent="1" vertex="1">
          <mxGeometry x="889.93" y="-510" width="60" height="100" as="geometry" />
        </mxCell>
        <mxCell id="SqGnxgyGbh73jKpLDU17-64" value="" style="pointerEvents=1;verticalLabelPosition=bottom;shadow=0;dashed=0;align=center;html=1;verticalAlign=top;shape=mxgraph.electrical.signal_sources.protective_earth;strokeWidth=2;fontSize=16;" parent="1" vertex="1">
          <mxGeometry x="938.93" y="-337" width="22" height="20" as="geometry" />
        </mxCell>
        <mxCell id="SqGnxgyGbh73jKpLDU17-65" value="" style="endArrow=none;html=1;rounded=0;entryX=0;entryY=0.5;entryDx=0;entryDy=0;entryPerimeter=0;exitDx=0;exitDy=0;exitPerimeter=0;strokeWidth=2;fontSize=16;" parent="1" target="SqGnxgyGbh73jKpLDU17-63" edge="1">
          <mxGeometry width="50" height="50" relative="1" as="geometry">
            <mxPoint x="889.93" y="-460" as="sourcePoint" />
            <mxPoint x="829.93" y="-440" as="targetPoint" />
          </mxGeometry>
        </mxCell>
        <mxCell id="SqGnxgyGbh73jKpLDU17-66" value="" style="endArrow=none;html=1;rounded=0;entryDx=0;entryDy=0;entryPerimeter=0;exitX=0;exitY=0.5;exitDx=0;exitDy=0;exitPerimeter=0;strokeWidth=2;fontSize=16;" parent="1" target="SqGnxgyGbh73jKpLDU17-67" edge="1">
          <mxGeometry width="50" height="50" relative="1" as="geometry">
            <mxPoint x="889.93" y="-380" as="sourcePoint" />
            <mxPoint x="889.93" y="-460" as="targetPoint" />
          </mxGeometry>
        </mxCell>
        <mxCell id="SqGnxgyGbh73jKpLDU17-67" value="" style="shape=waypoint;sketch=0;fillStyle=solid;size=6;pointerEvents=1;points=[];fillColor=none;resizable=0;rotatable=0;perimeter=centerPerimeter;snapToPoint=1;strokeWidth=2;fontSize=16;" parent="1" vertex="1">
          <mxGeometry x="879.93" y="-390" width="20" height="20" as="geometry" />
        </mxCell>
        <mxCell id="SqGnxgyGbh73jKpLDU17-60" style="edgeStyle=orthogonalEdgeStyle;rounded=0;orthogonalLoop=1;jettySize=auto;html=1;exitX=0;exitY=0.5;exitDx=0;exitDy=0;exitPerimeter=0;entryX=0.514;entryY=0.664;entryDx=0;entryDy=0;entryPerimeter=0;endArrow=none;endFill=0;strokeWidth=2;fontSize=16;" parent="1" source="SqGnxgyGbh73jKpLDU17-61" target="SqGnxgyGbh73jKpLDU17-67" edge="1">
          <mxGeometry relative="1" as="geometry">
            <Array as="points">
              <mxPoint x="889.93" y="-180" />
            </Array>
          </mxGeometry>
        </mxCell>
        <mxCell id="SqGnxgyGbh73jKpLDU17-68" value="" style="verticalLabelPosition=bottom;shadow=0;dashed=0;align=center;html=1;verticalAlign=top;shape=mxgraph.electrical.transistors.nmos;pointerEvents=1;strokeWidth=2;fontSize=16;" parent="1" vertex="1">
          <mxGeometry x="889.93" y="-430" width="60" height="100" as="geometry" />
        </mxCell>
        <mxCell id="SqGnxgyGbh73jKpLDU17-69" value="" style="endArrow=none;html=1;rounded=0;strokeWidth=3;fontSize=16;" parent="1" edge="1">
          <mxGeometry width="50" height="50" relative="1" as="geometry">
            <mxPoint x="929.93" y="-510" as="sourcePoint" />
            <mxPoint x="1069.93" y="-510" as="targetPoint" />
          </mxGeometry>
        </mxCell>
        <mxCell id="SqGnxgyGbh73jKpLDU17-70" value="" style="endArrow=none;html=1;rounded=0;exitX=1;exitY=0;exitDx=0;exitDy=0;exitPerimeter=0;strokeWidth=2;fontSize=16;" parent="1" source="SqGnxgyGbh73jKpLDU17-63" edge="1">
          <mxGeometry width="50" height="50" relative="1" as="geometry">
            <mxPoint x="999.93" y="-370" as="sourcePoint" />
            <mxPoint x="949.93" y="-510" as="targetPoint" />
          </mxGeometry>
        </mxCell>
        <mxCell id="SqGnxgyGbh73jKpLDU17-71" value="" style="endArrow=none;html=1;rounded=0;exitX=1;exitY=0;exitDx=0;exitDy=0;exitPerimeter=0;strokeWidth=2;fontSize=16;strokeColor=#CCCCCC;" parent="1" source="SqGnxgyGbh73jKpLDU17-62" edge="1">
          <mxGeometry width="50" height="50" relative="1" as="geometry">
            <mxPoint x="944.93" y="-420" as="sourcePoint" />
            <mxPoint x="1044.93" y="-510" as="targetPoint" />
            <Array as="points">
              <mxPoint x="1044.93" y="-490" />
            </Array>
          </mxGeometry>
        </mxCell>
        <mxCell id="SqGnxgyGbh73jKpLDU17-72" value="" style="shape=waypoint;sketch=0;fillStyle=solid;size=6;pointerEvents=1;points=[];fillColor=none;resizable=0;rotatable=0;perimeter=centerPerimeter;snapToPoint=1;strokeWidth=2;fontSize=16;strokeColor=#CCCCCC;" parent="1" vertex="1">
          <mxGeometry x="939.93" y="-430" width="20" height="20" as="geometry" />
        </mxCell>
        <mxCell id="SqGnxgyGbh73jKpLDU17-73" value="" style="endArrow=none;html=1;rounded=0;entryX=0;entryY=0.5;entryDx=0;entryDy=0;entryPerimeter=0;exitX=0.608;exitY=0.508;exitDx=0;exitDy=0;exitPerimeter=0;strokeWidth=2;fontSize=16;strokeColor=#CCCCCC;" parent="1" source="SqGnxgyGbh73jKpLDU17-72" target="SqGnxgyGbh73jKpLDU17-62" edge="1">
          <mxGeometry width="50" height="50" relative="1" as="geometry">
            <mxPoint x="989.93" y="-360" as="sourcePoint" />
            <mxPoint x="1039.93" y="-410" as="targetPoint" />
          </mxGeometry>
        </mxCell>
        <mxCell id="SqGnxgyGbh73jKpLDU17-74" value="" style="pointerEvents=1;verticalLabelPosition=bottom;shadow=0;dashed=0;align=center;html=1;verticalAlign=top;shape=mxgraph.electrical.signal_sources.protective_earth;strokeWidth=2;fontSize=16;" parent="1" vertex="1">
          <mxGeometry x="1033.93" y="-138" width="22" height="20" as="geometry" />
        </mxCell>
        <mxCell id="SqGnxgyGbh73jKpLDU17-77" value="" style="endArrow=none;html=1;rounded=0;entryDx=0;entryDy=0;entryPerimeter=0;exitDx=0;exitDy=0;exitPerimeter=0;strokeWidth=2;fontSize=16;" parent="1" source="SqGnxgyGbh73jKpLDU17-67" edge="1">
          <mxGeometry width="50" height="50" relative="1" as="geometry">
            <mxPoint x="889.93" y="-380" as="sourcePoint" />
            <mxPoint x="889.93" y="-460" as="targetPoint" />
          </mxGeometry>
        </mxCell>
        <mxCell id="SqGnxgyGbh73jKpLDU17-78" value="" style="shape=waypoint;sketch=0;fillStyle=solid;size=6;pointerEvents=1;points=[];fillColor=none;resizable=0;rotatable=0;perimeter=centerPerimeter;snapToPoint=1;strokeWidth=2;fontSize=16;strokeColor=#CCCCCC;" parent="1" vertex="1">
          <mxGeometry x="974.93" y="-350" width="20" height="20" as="geometry" />
        </mxCell>
        <mxCell id="SqGnxgyGbh73jKpLDU17-82" value="" style="endArrow=none;html=1;rounded=0;strokeColor=#0000FF;strokeWidth=2;" parent="1" source="SqGnxgyGbh73jKpLDU17-78" edge="1">
          <mxGeometry width="50" height="50" relative="1" as="geometry">
            <mxPoint x="731.93" y="-400" as="sourcePoint" />
            <mxPoint x="984.93" y="-510" as="targetPoint" />
          </mxGeometry>
        </mxCell>
        <mxCell id="SqGnxgyGbh73jKpLDU17-79" value="" style="endArrow=none;html=1;rounded=0;strokeWidth=2;" parent="1" target="SqGnxgyGbh73jKpLDU17-67" edge="1">
          <mxGeometry width="50" height="50" relative="1" as="geometry">
            <mxPoint x="850" y="-380" as="sourcePoint" />
            <mxPoint x="810" y="-400" as="targetPoint" />
          </mxGeometry>
        </mxCell>
        <mxCell id="SqGnxgyGbh73jKpLDU17-83" value="&lt;font style=&quot;font-size: 16px;&quot;&gt;&lt;i style=&quot;font-size: 16px;&quot;&gt;N&lt;/i&gt;&lt;sub style=&quot;font-size: 16px;&quot;&gt;dn&lt;/sub&gt;&lt;/font&gt;" style="text;html=1;strokeColor=none;fillColor=none;align=center;verticalAlign=middle;whiteSpace=wrap;rounded=0;fontSize=16;strokeWidth=2;" parent="1" vertex="1">
          <mxGeometry x="889.93" y="-148" width="60" height="30" as="geometry" />
        </mxCell>
        <mxCell id="SqGnxgyGbh73jKpLDU17-58" value="" style="verticalLabelPosition=bottom;shadow=0;dashed=0;align=center;html=1;verticalAlign=top;shape=mxgraph.electrical.transistors.pmos;pointerEvents=1;strokeWidth=2;fontSize=16;strokeColor=#CCCCCC;" parent="1" vertex="1">
          <mxGeometry x="984.93" y="-390" width="60" height="100" as="geometry" />
        </mxCell>
        <mxCell id="SqGnxgyGbh73jKpLDU17-75" value="" style="shape=waypoint;sketch=0;fillStyle=solid;size=6;pointerEvents=1;points=[];fillColor=none;resizable=0;rotatable=0;perimeter=centerPerimeter;snapToPoint=1;strokeWidth=2;fontSize=16;strokeColor=#0000FF;" parent="1" vertex="1">
          <mxGeometry x="1034.93" y="-309" width="20" height="20" as="geometry" />
        </mxCell>
        <mxCell id="SqGnxgyGbh73jKpLDU17-81" value="" style="endArrow=none;html=1;rounded=0;strokeWidth=2;fontSize=16;strokeColor=#0000FF;" parent="1" edge="1">
          <mxGeometry width="50" height="50" relative="1" as="geometry">
            <mxPoint x="1044.93" y="-299.28999999999996" as="sourcePoint" />
            <mxPoint x="1111.93" y="-300" as="targetPoint" />
          </mxGeometry>
        </mxCell>
        <mxCell id="SqGnxgyGbh73jKpLDU17-118" value="" style="endArrow=none;html=1;rounded=0;exitX=0;exitY=0.5;exitDx=0;exitDy=0;exitPerimeter=0;entryX=0;entryY=0.5;entryDx=0;entryDy=0;entryPerimeter=0;strokeWidth=2;strokeColor=#0000FF;" parent="1" source="SqGnxgyGbh73jKpLDU17-59" target="SqGnxgyGbh73jKpLDU17-58" edge="1">
          <mxGeometry width="50" height="50" relative="1" as="geometry">
            <mxPoint x="961.93" y="-300" as="sourcePoint" />
            <mxPoint x="1011.93" y="-350" as="targetPoint" />
          </mxGeometry>
        </mxCell>
        <mxCell id="SqGnxgyGbh73jKpLDU17-133" value="" style="endArrow=none;html=1;rounded=0;exitX=1.014;exitY=0.118;exitDx=0;exitDy=0;exitPerimeter=0;strokeWidth=2;" parent="1" edge="1">
          <mxGeometry width="50" height="50" relative="1" as="geometry">
            <mxPoint x="530.98" y="-899.2" as="sourcePoint" />
            <mxPoint x="870" y="-900" as="targetPoint" />
          </mxGeometry>
        </mxCell>
        <mxCell id="SqGnxgyGbh73jKpLDU17-134" value="" style="endArrow=none;html=1;rounded=0;exitX=1.002;exitY=0.934;exitDx=0;exitDy=0;exitPerimeter=0;strokeWidth=2;" parent="1" edge="1">
          <mxGeometry width="50" height="50" relative="1" as="geometry">
            <mxPoint x="530.07" y="-379.5999999999999" as="sourcePoint" />
            <mxPoint x="849.93" y="-380" as="targetPoint" />
          </mxGeometry>
        </mxCell>
        <mxCell id="SqGnxgyGbh73jKpLDU17-136" value="" style="endArrow=none;html=1;rounded=0;exitX=1.008;exitY=0.45;exitDx=0;exitDy=0;exitPerimeter=0;strokeWidth=2;" parent="1" edge="1">
          <mxGeometry width="50" height="50" relative="1" as="geometry">
            <mxPoint x="530.56" y="-691" as="sourcePoint" />
            <mxPoint x="560" y="-691" as="targetPoint" />
          </mxGeometry>
        </mxCell>
        <mxCell id="SqGnxgyGbh73jKpLDU17-99" value="" style="verticalLabelPosition=bottom;shadow=0;dashed=0;align=center;html=1;verticalAlign=top;shape=mxgraph.electrical.transistors.nmos;pointerEvents=1;strokeWidth=2;fontSize=16;" parent="1" vertex="1">
          <mxGeometry x="910" y="-950" width="60" height="100" as="geometry" />
        </mxCell>
        <mxCell id="SqGnxgyGbh73jKpLDU17-138" value="This voltage-mode DAC is synthesized using Verilog from tristate-inverters. They are either configured into a shorted inverter, a pull-down or a pull-up MOSFET. The number of active cells (&lt;i&gt;N&lt;/i&gt;&lt;sub&gt;ref&lt;/sub&gt;, &lt;i&gt;N&lt;/i&gt;&lt;sub&gt;up&lt;/sub&gt;, and &lt;i&gt;N&lt;/i&gt;&lt;sub&gt;dn&lt;/sub&gt;) is configured depending on the digital input code, and thus an analog output voltage &lt;i&gt;V&lt;/i&gt;&lt;sub&gt;out&lt;/sub&gt; is produced." style="text;html=1;strokeColor=none;fillColor=none;align=left;verticalAlign=middle;whiteSpace=wrap;rounded=0;fontSize=20;" parent="1" vertex="1">
          <mxGeometry x="430" y="-340" width="410" height="210" as="geometry" />
        </mxCell>
        <mxCell id="SqGnxgyGbh73jKpLDU17-139" value="" style="endArrow=none;html=1;rounded=0;exitX=1.019;exitY=0.102;exitDx=0;exitDy=0;exitPerimeter=0;entryX=-0.008;entryY=0.334;entryDx=0;entryDy=0;entryPerimeter=0;strokeWidth=2;strokeColor=#999999;" parent="1" target="SqGnxgyGbh73jKpLDU17-87" edge="1">
          <mxGeometry width="50" height="50" relative="1" as="geometry">
            <mxPoint x="531.3299999999999" y="-908.7999999999997" as="sourcePoint" />
            <mxPoint x="750" y="-870" as="targetPoint" />
          </mxGeometry>
        </mxCell>
        <mxCell id="SqGnxgyGbh73jKpLDU17-141" value="" style="endArrow=none;html=1;rounded=0;exitX=1.007;exitY=0.084;exitDx=0;exitDy=0;exitPerimeter=0;entryX=-0.009;entryY=0.31;entryDx=0;entryDy=0;entryPerimeter=0;strokeWidth=2;strokeColor=#999999;" parent="1" target="SqGnxgyGbh73jKpLDU17-87" edge="1">
          <mxGeometry width="50" height="50" relative="1" as="geometry">
            <mxPoint x="530.4899999999998" y="-919.5999999999999" as="sourcePoint" />
            <mxPoint x="750" y="-870" as="targetPoint" />
          </mxGeometry>
        </mxCell>
        <mxCell id="SqGnxgyGbh73jKpLDU17-142" value="" style="endArrow=none;html=1;rounded=0;exitX=1.001;exitY=0.916;exitDx=0;exitDy=0;exitPerimeter=0;entryX=-0.008;entryY=0.332;entryDx=0;entryDy=0;entryPerimeter=0;strokeWidth=2;strokeColor=#999999;" parent="1" target="SqGnxgyGbh73jKpLDU17-56" edge="1">
          <mxGeometry width="50" height="50" relative="1" as="geometry">
            <mxPoint x="529.9999999999999" y="-390.4000000000001" as="sourcePoint" />
            <mxPoint x="749.93" y="-520" as="targetPoint" />
          </mxGeometry>
        </mxCell>
        <mxCell id="SqGnxgyGbh73jKpLDU17-143" value="" style="endArrow=none;html=1;rounded=0;exitX=1.001;exitY=0.916;exitDx=0;exitDy=0;exitPerimeter=0;entryX=-0.008;entryY=0.332;entryDx=0;entryDy=0;entryPerimeter=0;strokeWidth=2;strokeColor=#999999;" parent="1" edge="1">
          <mxGeometry width="50" height="50" relative="1" as="geometry">
            <mxPoint x="529.9999999999999" y="-400.4000000000001" as="sourcePoint" />
            <mxPoint x="868" y="-401" as="targetPoint" />
          </mxGeometry>
        </mxCell>
        <mxCell id="SqGnxgyGbh73jKpLDU17-144" value="" style="endArrow=none;html=1;rounded=0;exitX=1.015;exitY=0.433;exitDx=0;exitDy=0;exitPerimeter=0;entryX=-0.003;entryY=0.334;entryDx=0;entryDy=0;entryPerimeter=0;strokeWidth=2;strokeColor=#999999;" parent="1" source="TYAT_m3Qwc5HiXnAlvp4-63" target="SqGnxgyGbh73jKpLDU17-48" edge="1">
          <mxGeometry width="50" height="50" relative="1" as="geometry">
            <mxPoint x="620" y="-680" as="sourcePoint" />
            <mxPoint x="670" y="-730" as="targetPoint" />
          </mxGeometry>
        </mxCell>
        <mxCell id="SqGnxgyGbh73jKpLDU17-145" value="" style="endArrow=none;html=1;rounded=0;exitX=1.02;exitY=0.417;exitDx=0;exitDy=0;exitPerimeter=0;entryX=0;entryY=0.311;entryDx=0;entryDy=0;entryPerimeter=0;strokeWidth=2;strokeColor=#999999;" parent="1" source="TYAT_m3Qwc5HiXnAlvp4-63" target="SqGnxgyGbh73jKpLDU17-48" edge="1">
          <mxGeometry width="50" height="50" relative="1" as="geometry">
            <mxPoint x="620" y="-680" as="sourcePoint" />
            <mxPoint x="670" y="-730" as="targetPoint" />
            <Array as="points">
              <mxPoint x="560" y="-710" />
            </Array>
          </mxGeometry>
        </mxCell>
        <mxCell id="SqGnxgyGbh73jKpLDU17-148" value="" style="endArrow=none;html=1;rounded=0;strokeColor=#0000FF;strokeWidth=2;exitX=1.001;exitY=0.523;exitDx=0;exitDy=0;exitPerimeter=0;" parent="1" source="SqGnxgyGbh73jKpLDU17-87" target="SqGnxgyGbh73jKpLDU17-147" edge="1">
          <mxGeometry width="50" height="50" relative="1" as="geometry">
            <mxPoint x="1120" y="-830" as="sourcePoint" />
            <mxPoint x="1170" y="-832" as="targetPoint" />
          </mxGeometry>
        </mxCell>
        <mxCell id="SqGnxgyGbh73jKpLDU17-147" value="" style="shape=waypoint;sketch=0;fillStyle=solid;size=6;pointerEvents=1;points=[];fillColor=none;resizable=0;rotatable=0;perimeter=centerPerimeter;snapToPoint=1;strokeWidth=2;fontSize=16;strokeColor=#0000FF;" parent="1" vertex="1">
          <mxGeometry x="1160" y="-840" width="20" height="20" as="geometry" />
        </mxCell>
        <mxCell id="SqGnxgyGbh73jKpLDU17-149" value="" style="endArrow=none;html=1;rounded=0;exitX=1.005;exitY=0.52;exitDx=0;exitDy=0;exitPerimeter=0;strokeWidth=2;strokeColor=#0000FF;" parent="1" source="SqGnxgyGbh73jKpLDU17-86" edge="1">
          <mxGeometry width="50" height="50" relative="1" as="geometry">
            <mxPoint x="1131.1" y="-838.66" as="sourcePoint" />
            <mxPoint x="1180" y="-840" as="targetPoint" />
          </mxGeometry>
        </mxCell>
        <mxCell id="SqGnxgyGbh73jKpLDU17-151" value="" style="endArrow=none;html=1;rounded=0;strokeColor=#0000FF;strokeWidth=2;" parent="1" target="SqGnxgyGbh73jKpLDU17-150" edge="1">
          <mxGeometry width="50" height="50" relative="1" as="geometry">
            <mxPoint x="1160" y="-610" as="sourcePoint" />
            <mxPoint x="1160" y="-810" as="targetPoint" />
          </mxGeometry>
        </mxCell>
        <mxCell id="SqGnxgyGbh73jKpLDU17-150" value="" style="shape=waypoint;sketch=0;fillStyle=solid;size=6;pointerEvents=1;points=[];fillColor=none;resizable=0;rotatable=0;perimeter=centerPerimeter;snapToPoint=1;strokeWidth=2;fontSize=16;strokeColor=#0000FF;" parent="1" vertex="1">
          <mxGeometry x="1150" y="-829" width="20" height="20" as="geometry" />
        </mxCell>
        <mxCell id="SqGnxgyGbh73jKpLDU17-152" value="" style="endArrow=none;html=1;rounded=0;exitX=0.45;exitY=0.65;exitDx=0;exitDy=0;exitPerimeter=0;entryX=0.956;entryY=-0.048;entryDx=0;entryDy=0;entryPerimeter=0;strokeWidth=2;strokeColor=#0000FF;" parent="1" source="SqGnxgyGbh73jKpLDU17-150" target="SqGnxgyGbh73jKpLDU17-147" edge="1">
          <mxGeometry width="50" height="50" relative="1" as="geometry">
            <mxPoint x="1190" y="-700" as="sourcePoint" />
            <mxPoint x="1240" y="-750" as="targetPoint" />
          </mxGeometry>
        </mxCell>
        <mxCell id="SqGnxgyGbh73jKpLDU17-153" value="" style="endArrow=none;html=1;rounded=0;exitX=0.463;exitY=0.648;exitDx=0;exitDy=0;exitPerimeter=0;strokeWidth=2;strokeColor=#0000FF;" parent="1" source="SqGnxgyGbh73jKpLDU17-147" edge="1">
          <mxGeometry width="50" height="50" relative="1" as="geometry">
            <mxPoint x="1190" y="-750" as="sourcePoint" />
            <mxPoint x="1180" y="-840" as="targetPoint" />
          </mxGeometry>
        </mxCell>
        <mxCell id="SqGnxgyGbh73jKpLDU17-154" value="" style="endArrow=none;html=1;rounded=0;strokeColor=#0000FF;strokeWidth=2;" parent="1" edge="1">
          <mxGeometry width="50" height="50" relative="1" as="geometry">
            <mxPoint x="1110" y="-300" as="sourcePoint" />
            <mxPoint x="1140" y="-300" as="targetPoint" />
          </mxGeometry>
        </mxCell>
        <mxCell id="SqGnxgyGbh73jKpLDU17-155" value="" style="endArrow=none;html=1;rounded=0;strokeColor=#0000FF;strokeWidth=2;exitX=1.14;exitY=0.987;exitDx=0;exitDy=0;exitPerimeter=0;" parent="1" source="SqGnxgyGbh73jKpLDU17-157" edge="1">
          <mxGeometry width="50" height="50" relative="1" as="geometry">
            <mxPoint x="1140" y="-100" as="sourcePoint" />
            <mxPoint x="1140" y="-300" as="targetPoint" />
          </mxGeometry>
        </mxCell>
        <mxCell id="SqGnxgyGbh73jKpLDU17-156" value="" style="endArrow=none;html=1;rounded=0;strokeColor=#0000FF;strokeWidth=2;exitX=0.995;exitY=0.523;exitDx=0;exitDy=0;exitPerimeter=0;" parent="1" source="SqGnxgyGbh73jKpLDU17-56" target="SqGnxgyGbh73jKpLDU17-157" edge="1">
          <mxGeometry width="50" height="50" relative="1" as="geometry">
            <mxPoint x="1100" y="-310" as="sourcePoint" />
            <mxPoint x="1150" y="-312" as="targetPoint" />
          </mxGeometry>
        </mxCell>
        <mxCell id="SqGnxgyGbh73jKpLDU17-157" value="" style="shape=waypoint;sketch=0;fillStyle=solid;size=6;pointerEvents=1;points=[];fillColor=none;resizable=0;rotatable=0;perimeter=centerPerimeter;snapToPoint=1;strokeWidth=2;fontSize=16;strokeColor=#0000FF;" parent="1" vertex="1">
          <mxGeometry x="1140" y="-320" width="20" height="20" as="geometry" />
        </mxCell>
        <mxCell id="SqGnxgyGbh73jKpLDU17-158" value="" style="endArrow=none;html=1;rounded=0;exitX=1.005;exitY=0.52;exitDx=0;exitDy=0;exitPerimeter=0;strokeWidth=2;strokeColor=#0000FF;" parent="1" source="SqGnxgyGbh73jKpLDU17-55" edge="1">
          <mxGeometry width="50" height="50" relative="1" as="geometry">
            <mxPoint x="1112" y="-320" as="sourcePoint" />
            <mxPoint x="1160" y="-320" as="targetPoint" />
          </mxGeometry>
        </mxCell>
        <mxCell id="SqGnxgyGbh73jKpLDU17-159" value="" style="shape=waypoint;sketch=0;fillStyle=solid;size=6;pointerEvents=1;points=[];fillColor=none;resizable=0;rotatable=0;perimeter=centerPerimeter;snapToPoint=1;strokeWidth=2;fontSize=16;strokeColor=#0000FF;" parent="1" vertex="1">
          <mxGeometry x="1150" y="-329" width="20" height="20" as="geometry" />
        </mxCell>
        <mxCell id="SqGnxgyGbh73jKpLDU17-160" value="" style="endArrow=none;html=1;rounded=0;exitX=0.45;exitY=0.65;exitDx=0;exitDy=0;exitPerimeter=0;entryX=0.956;entryY=-0.048;entryDx=0;entryDy=0;entryPerimeter=0;strokeWidth=2;strokeColor=#0000FF;" parent="1" source="SqGnxgyGbh73jKpLDU17-159" target="SqGnxgyGbh73jKpLDU17-157" edge="1">
          <mxGeometry width="50" height="50" relative="1" as="geometry">
            <mxPoint x="1170" y="-180" as="sourcePoint" />
            <mxPoint x="1220" y="-230" as="targetPoint" />
          </mxGeometry>
        </mxCell>
        <mxCell id="SqGnxgyGbh73jKpLDU17-161" value="" style="endArrow=none;html=1;rounded=0;exitX=0.463;exitY=0.648;exitDx=0;exitDy=0;exitPerimeter=0;strokeWidth=2;strokeColor=#0000FF;" parent="1" source="SqGnxgyGbh73jKpLDU17-157" edge="1">
          <mxGeometry width="50" height="50" relative="1" as="geometry">
            <mxPoint x="1170" y="-230" as="sourcePoint" />
            <mxPoint x="1160" y="-320" as="targetPoint" />
          </mxGeometry>
        </mxCell>
        <mxCell id="SqGnxgyGbh73jKpLDU17-162" value="" style="endArrow=none;html=1;rounded=0;strokeColor=#0000FF;strokeWidth=2;" parent="1" edge="1">
          <mxGeometry width="50" height="50" relative="1" as="geometry">
            <mxPoint x="819.9300000000001" y="-610" as="sourcePoint" />
            <mxPoint x="849.9300000000001" y="-610" as="targetPoint" />
          </mxGeometry>
        </mxCell>
        <mxCell id="SqGnxgyGbh73jKpLDU17-163" value="" style="endArrow=none;html=1;rounded=0;strokeColor=#0000FF;strokeWidth=2;" parent="1" edge="1">
          <mxGeometry width="50" height="50" relative="1" as="geometry">
            <mxPoint x="849.9300000000001" y="-609" as="sourcePoint" />
            <mxPoint x="849.9300000000001" y="-610" as="targetPoint" />
          </mxGeometry>
        </mxCell>
        <mxCell id="SqGnxgyGbh73jKpLDU17-164" value="" style="endArrow=none;html=1;rounded=0;strokeColor=#0000FF;strokeWidth=2;exitX=0.998;exitY=0.526;exitDx=0;exitDy=0;exitPerimeter=0;" parent="1" source="SqGnxgyGbh73jKpLDU17-48" target="SqGnxgyGbh73jKpLDU17-165" edge="1">
          <mxGeometry width="50" height="50" relative="1" as="geometry">
            <mxPoint x="809.9300000000001" y="-620" as="sourcePoint" />
            <mxPoint x="859.9300000000001" y="-622" as="targetPoint" />
          </mxGeometry>
        </mxCell>
        <mxCell id="SqGnxgyGbh73jKpLDU17-165" value="" style="shape=waypoint;sketch=0;fillStyle=solid;size=6;pointerEvents=1;points=[];fillColor=none;resizable=0;rotatable=0;perimeter=centerPerimeter;snapToPoint=1;strokeWidth=2;fontSize=16;strokeColor=#0000FF;" parent="1" vertex="1">
          <mxGeometry x="849.9300000000001" y="-630" width="20" height="20" as="geometry" />
        </mxCell>
        <mxCell id="SqGnxgyGbh73jKpLDU17-166" value="" style="endArrow=none;html=1;rounded=0;exitX=0.999;exitY=0.524;exitDx=0;exitDy=0;exitPerimeter=0;strokeWidth=2;strokeColor=#0000FF;" parent="1" source="SqGnxgyGbh73jKpLDU17-50" edge="1">
          <mxGeometry width="50" height="50" relative="1" as="geometry">
            <mxPoint x="821.9300000000001" y="-630" as="sourcePoint" />
            <mxPoint x="869.9300000000001" y="-630" as="targetPoint" />
          </mxGeometry>
        </mxCell>
        <mxCell id="SqGnxgyGbh73jKpLDU17-168" value="" style="endArrow=none;html=1;rounded=0;exitDx=0;exitDy=0;exitPerimeter=0;entryX=0.956;entryY=-0.048;entryDx=0;entryDy=0;entryPerimeter=0;strokeWidth=2;strokeColor=#0000FF;" parent="1" source="SqGnxgyGbh73jKpLDU17-167" target="SqGnxgyGbh73jKpLDU17-165" edge="1">
          <mxGeometry width="50" height="50" relative="1" as="geometry">
            <mxPoint x="849.9300000000001" y="-609" as="sourcePoint" />
            <mxPoint x="929.9300000000001" y="-540" as="targetPoint" />
          </mxGeometry>
        </mxCell>
        <mxCell id="SqGnxgyGbh73jKpLDU17-169" value="" style="endArrow=none;html=1;rounded=0;exitX=0.463;exitY=0.648;exitDx=0;exitDy=0;exitPerimeter=0;strokeWidth=2;strokeColor=#0000FF;" parent="1" source="SqGnxgyGbh73jKpLDU17-165" edge="1">
          <mxGeometry width="50" height="50" relative="1" as="geometry">
            <mxPoint x="879.9300000000001" y="-540" as="sourcePoint" />
            <mxPoint x="869.9300000000001" y="-630" as="targetPoint" />
          </mxGeometry>
        </mxCell>
        <mxCell id="SqGnxgyGbh73jKpLDU17-170" value="" style="endArrow=none;html=1;rounded=0;exitX=0.45;exitY=0.65;exitDx=0;exitDy=0;exitPerimeter=0;entryDx=0;entryDy=0;entryPerimeter=0;strokeWidth=2;strokeColor=#0000FF;" parent="1" target="SqGnxgyGbh73jKpLDU17-167" edge="1">
          <mxGeometry width="50" height="50" relative="1" as="geometry">
            <mxPoint x="849.9300000000001" y="-609" as="sourcePoint" />
            <mxPoint x="860" y="-620" as="targetPoint" />
          </mxGeometry>
        </mxCell>
        <mxCell id="SqGnxgyGbh73jKpLDU17-167" value="" style="shape=waypoint;sketch=0;fillStyle=solid;size=6;pointerEvents=1;points=[];fillColor=none;resizable=0;rotatable=0;perimeter=centerPerimeter;snapToPoint=1;strokeWidth=2;fontSize=16;strokeColor=#0000FF;" parent="1" vertex="1">
          <mxGeometry x="840" y="-620" width="20" height="20" as="geometry" />
        </mxCell>
        <mxCell id="NFCRVKDlO9X5LYsCdCdA-1" value="(c) 2023 H. Pretl, IIC@JKU" style="text;html=1;strokeColor=none;fillColor=none;align=left;verticalAlign=middle;whiteSpace=wrap;rounded=0;fontSize=12;" vertex="1" parent="1">
          <mxGeometry x="460" y="-1070" width="157" height="14.55" as="geometry" />
        </mxCell>
      </root>
    </mxGraphModel>
  </diagram>
</mxfile>
